<?xml version="1.0" standalone="no"?>
<!DOCTYPE svg PUBLIC "-//W3C//DTD SVG 20010904//EN"
 "http://www.w3.org/TR/2001/REC-SVG-20010904/DTD/svg10.dtd">
<svg version="1.0" xmlns="http://www.w3.org/2000/svg"
 width="227.000000pt" height="227.000000pt" viewBox="0 0 227.000000 227.000000"
 preserveAspectRatio="xMidYMid meet">

<g transform="translate(0.000000,227.000000) scale(0.100000,-0.100000)"
fill="#000000" stroke="none">
<path d="M998 2239 c-361 -47 -690 -285 -861 -624 -71 -140 -104 -270 -113
-445 -28 -525 322 -1004 836 -1144 l95 -26 658 0 657 0 0 650 c0 632 -1 653
-22 738 -47 190 -140 360 -275 502 -105 110 -189 173 -318 238 -203 103 -428
140 -657 111z m-206 -873 c3 -148 4 -156 28 -181 19 -21 30 -24 55 -19 64 13
70 28 73 199 l3 155 36 0 35 0 -4 -157 c-3 -128 -7 -164 -21 -191 -52 -96
-202 -96 -254 0 -14 27 -18 63 -21 191 l-4 157 35 0 36 0 3 -154z m434 26
l109 -122 3 125 3 125 34 0 35 0 0 -206 c0 -124 -4 -204 -9 -202 -6 2 -62 60
-125 131 l-116 127 0 -130 0 -130 -30 0 -30 0 0 206 c0 113 4 204 8 202 5 -1
58 -58 118 -126z m344 -77 l0 -205 -35 0 -35 0 0 205 0 205 35 0 35 0 0 -205z
m-800 -380 l0 -75 60 0 60 0 0 75 0 75 30 0 30 0 0 -185 0 -185 -30 0 -30 0 0
85 0 85 -60 0 -60 0 0 -85 0 -85 -35 0 -35 0 0 178 c0 98 3 182 7 185 3 4 19
7 35 7 l28 0 0 -75z m312 -64 c3 -120 6 -142 22 -160 24 -27 70 -27 96 -1 18
18 20 33 20 160 l0 140 35 0 35 0 0 -110 c0 -139 -13 -199 -50 -235 -59 -56
-166 -38 -202 35 -15 28 -18 62 -18 173 l0 137 29 0 29 0 4 -139z m472 110
c31 -29 36 -93 10 -122 -15 -17 -14 -20 12 -43 25 -21 29 -31 28 -71 -1 -36
-7 -52 -28 -73 -24 -25 -34 -27 -126 -30 l-100 -4 0 187 0 187 89 -4 c78 -3
93 -6 115 -27z"/>
<path d="M1415 947 c-4 -8 -5 -32 -3 -53 3 -38 4 -39 40 -38 45 1 68 18 68 49
0 29 -19 45 -64 52 -27 4 -37 2 -41 -10z"/>
<path d="M1410 745 l0 -55 48 0 c55 0 82 20 82 61 0 37 -18 49 -77 49 l-53 0
0 -55z"/>
</g>
</svg>
